<svg width="512px" height="512px" viewBox="0 0 512 512" version="1.1" xmlns="http://www.w3.org/2000/svg" xmlns:xlink="http://www.w3.org/1999/xlink"><path d="M240.640 0.878 C 207.706 2.701,175.809 10.965,145.493 25.528 C 119.140 38.188,98.790 52.427,77.768 72.916 C 45.737 104.134,23.949 140.110,10.814 183.467 C -2.903 228.747,-2.901 283.127,10.821 328.533 C 21.258 363.069,37.799 393.817,60.399 420.693 C 69.147 431.097,86.058 447.574,96.427 455.798 C 146.232 495.300,207.046 514.642,270.193 511.065 C 305.459 509.067,335.370 501.430,366.507 486.472 C 392.860 473.812,413.210 459.573,434.232 439.084 C 497.658 377.268,524.068 289.851,505.909 201.833 C 499.365 170.113,483.949 135.262,464.191 107.520 C 451.601 89.842,432.297 69.466,415.573 56.202 C 365.490 16.479,304.909 -2.680,240.640 0.878 M387.301 94.253 C 401.904 98.139,414.144 110.131,418.699 125.013 C 420.177 129.840,420.267 135.166,420.267 218.027 C 420.267 300.888,420.177 306.213,418.699 311.040 C 414.407 325.062,403.621 336.203,389.866 340.823 L 383.573 342.937 381.855 349.609 C 379.782 357.660,376.650 363.236,370.687 369.493 C 364.779 375.693,357.946 379.709,349.687 381.835 L 342.937 383.573 340.823 389.866 C 336.203 403.621,325.062 414.407,311.040 418.699 C 306.213 420.177,300.888 420.267,218.027 420.267 C 135.166 420.267,129.840 420.177,125.013 418.699 C 110.131 414.144,98.139 401.904,94.253 387.301 C 93.234 383.473,93.032 368.273,93.023 294.768 C 93.012 198.956,92.803 203.393,97.799 193.528 C 100.693 187.812,108.965 179.314,115.253 175.597 C 118.398 173.739,123.192 171.851,126.812 171.045 L 132.998 169.669 134.730 163.981 C 138.882 150.348,150.329 138.872,163.879 134.756 L 169.669 132.998 171.045 126.812 C 172.830 118.792,177.349 111.214,184.135 104.863 C 189.927 99.442,194.052 96.994,201.387 94.623 C 205.758 93.209,212.139 93.103,294.400 93.069 C 368.331 93.039,383.466 93.232,387.301 94.253 M208.896 105.881 C 196.714 107.668,186.009 117.593,183.011 129.880 L 182.448 132.187 264.238 132.498 C 351.262 132.829,348.921 132.714,358.216 137.112 C 364.506 140.087,374.522 149.714,377.876 156.007 C 383.323 166.225,383.147 163.068,383.147 250.588 L 383.147 330.151 385.920 329.206 C 394.187 326.386,402.274 318.751,405.540 310.681 L 407.467 305.920 407.719 221.440 C 407.982 133.349,407.851 129.487,404.354 122.633 C 399.897 113.896,390.438 107.220,380.475 105.780 C 373.717 104.803,215.613 104.896,208.896 105.881 M170.852 146.017 C 168.372 146.430,164.782 147.564,162.874 148.538 C 155.853 152.119,148.753 160.352,146.794 167.181 L 146.039 169.813 225.553 169.863 C 314.208 169.917,311.120 169.725,321.222 175.809 C 327.246 179.436,335.477 188.043,338.357 193.727 C 343.155 203.195,343.040 200.854,343.040 289.139 L 343.040 370.560 345.760 370.016 C 354.460 368.276,363.788 360.805,367.717 352.429 L 369.920 347.733 369.920 258.115 L 369.920 168.497 367.115 162.800 C 362.622 153.673,354.310 147.551,344.152 145.888 C 337.889 144.862,177.068 144.982,170.852 146.017 M125.372 184.606 C 114.218 189.209,107.555 197.757,105.832 209.669 C 104.756 217.113,104.708 373.061,105.780 380.475 C 107.220 390.438,113.896 399.897,122.633 404.354 C 129.487 407.851,133.349 407.982,221.440 407.719 L 305.920 407.467 311.034 405.408 C 317.116 402.959,324.515 395.925,327.557 389.699 C 328.663 387.436,329.898 383.020,330.302 379.886 C 331.338 371.856,331.265 216.889,330.222 209.677 C 329.762 206.492,328.444 202.029,327.293 199.758 C 324.457 194.161,318.011 187.911,312.322 185.243 L 307.627 183.040 218.880 182.841 L 130.133 182.641 125.372 184.606 M165.252 201.805 C 172.427 203.936,179.128 212.149,179.184 218.880 L 179.205 221.440 205.442 231.787 L 231.680 242.134 233.703 237.895 C 236.336 232.377,244.545 223.649,249.754 220.830 C 259.444 215.586,273.205 214.418,282.453 218.057 C 292.336 221.945,301.945 231.266,305.697 240.604 C 307.272 244.526,307.599 247.009,307.612 255.147 C 307.626 264.449,307.483 265.263,304.873 270.773 C 301.343 278.227,293.314 286.704,286.612 290.053 C 273.259 296.725,256.451 295.010,244.807 285.788 C 241.633 283.274,241.284 283.186,238.694 284.255 C 228.866 288.310,169.419 317.374,169.558 318.055 C 169.652 318.517,169.823 320.487,169.938 322.434 C 170.053 324.381,170.374 325.973,170.652 325.973 C 170.930 325.973,187.022 329.429,206.412 333.653 C 225.803 337.877,242.396 341.333,243.287 341.333 C 244.178 341.333,244.907 340.971,244.907 340.529 C 244.907 338.969,254.414 329.478,258.196 327.261 C 263.230 324.312,273.035 322.281,278.599 323.035 C 288.712 324.406,296.959 329.355,302.858 337.592 C 314.075 353.258,309.365 375.609,292.617 386.181 C 282.247 392.728,266.962 392.508,256.627 385.662 C 248.048 379.980,243.012 372.071,241.414 361.774 C 240.871 358.276,240.330 355.029,240.212 354.560 C 240.094 354.091,223.418 350.116,203.155 345.728 L 166.312 337.748 163.321 340.828 C 152.058 352.425,132.846 349.476,125.178 334.972 C 122.714 330.311,122.561 319.366,124.895 314.672 C 131.031 302.328,145.025 297.611,157.416 303.711 L 162.853 306.388 198.120 289.631 C 217.516 280.416,233.474 272.800,233.580 272.707 C 233.686 272.614,233.053 270.641,232.173 268.322 C 231.293 266.004,230.307 261.976,229.983 259.372 L 229.393 254.637 201.999 243.796 L 174.605 232.955 172.423 235.045 C 167.479 239.781,157.728 241.420,151.653 238.538 C 135.227 230.743,136.677 207.144,153.913 201.751 C 158.587 200.289,160.172 200.296,165.252 201.805 M154.995 215.102 C 150.756 218.436,152.540 226.243,157.805 227.400 C 160.636 228.022,165.031 226.148,165.870 223.962 C 168.709 216.562,161.061 210.331,154.995 215.102 M257.993 230.720 C 252.480 233.340,246.996 238.753,244.616 243.926 C 241.805 250.035,242.017 260.927,245.058 266.667 C 249.806 275.626,257.638 280.788,267.399 281.392 C 278.683 282.089,287.761 276.814,292.763 266.654 C 295.309 261.484,295.444 260.732,295.103 253.617 C 294.703 245.236,292.858 240.953,287.433 235.808 C 282.293 230.934,277.713 229.147,269.653 228.873 C 263.406 228.660,261.789 228.916,257.993 230.720 M141.113 314.810 C 137.266 317.156,135.680 319.860,135.680 324.072 C 135.680 331.302,139.765 335.360,147.043 335.360 C 151.509 335.360,154.934 333.046,156.690 328.844 C 158.267 325.070,158.172 322.676,156.307 319.199 C 153.355 313.694,146.290 311.653,141.113 314.810 M266.667 336.908 C 255.885 341.967,250.759 353.677,254.610 364.450 C 259.719 378.742,278.448 383.193,289.727 372.796 C 300.713 362.671,297.817 343.934,284.252 337.361 C 279.695 335.152,270.890 334.926,266.667 336.908 " stroke="none" fill="#CE358B" fill-rule="evenodd"></path></svg>
